<svg width="43" height="58" viewBox="0 0 43 58" fill="none" xmlns="http://www.w3.org/2000/svg">
<path d="M34.284 10.668C32.36 9.68 30.254 8.822 27.966 8.094C25.678 7.366 23.442 7.002 21.258 7.002C18.242 7.002 15.824 7.704 14.004 9.108C12.236 10.512 11.352 12.384 11.352 14.724C11.352 16.492 11.924 18 13.068 19.248C14.212 20.444 15.72 21.484 17.592 22.368C19.464 23.252 21.414 24.084 23.442 24.864C25.21 25.54 26.952 26.294 28.668 27.126C30.384 27.958 31.918 28.998 33.27 30.246C34.674 31.494 35.766 33.028 36.546 34.848C37.378 36.668 37.794 38.93 37.794 41.634C37.794 44.598 37.04 47.302 35.532 49.746C34.076 52.19 31.97 54.114 29.214 55.518C26.458 56.922 23.182 57.624 19.386 57.624C16.89 57.624 14.498 57.338 12.21 56.766C9.974 56.194 7.894 55.466 5.97 54.582C4.046 53.646 2.33 52.684 0.822 51.696L4.176 45.768C5.424 46.652 6.854 47.51 8.466 48.342C10.078 49.122 11.768 49.772 13.536 50.292C15.304 50.76 17.02 50.994 18.684 50.994C20.452 50.994 22.194 50.682 23.91 50.058C25.678 49.382 27.134 48.368 28.278 47.016C29.422 45.664 29.994 43.87 29.994 41.634C29.994 39.71 29.474 38.124 28.434 36.876C27.446 35.576 26.12 34.484 24.456 33.6C22.792 32.664 21.024 31.832 19.152 31.104C17.384 30.428 15.59 29.7 13.77 28.92C11.95 28.088 10.26 27.1 8.7 25.956C7.14 24.76 5.892 23.304 4.956 21.588C4.02 19.872 3.552 17.792 3.552 15.348C3.552 12.384 4.254 9.81 5.658 7.626C7.114 5.39 9.09 3.648 11.586 2.4C14.082 1.1 16.942 0.397997 20.166 0.293995C23.806 0.293995 27.004 0.735996 29.76 1.62C32.568 2.504 35.038 3.596 37.17 4.896L34.284 10.668Z" fill="white"/>
<path d="M34.284 10.668C32.36 9.68 30.254 8.822 27.966 8.094C25.678 7.366 23.442 7.002 21.258 7.002C18.242 7.002 15.824 7.704 14.004 9.108C12.236 10.512 11.352 12.384 11.352 14.724C11.352 16.492 11.924 18 13.068 19.248C14.212 20.444 15.72 21.484 17.592 22.368C19.464 23.252 21.414 24.084 23.442 24.864C25.21 25.54 26.952 26.294 28.668 27.126C30.384 27.958 31.918 28.998 33.27 30.246C34.674 31.494 35.766 33.028 36.546 34.848C37.378 36.668 37.794 38.93 37.794 41.634C37.794 44.598 37.04 47.302 35.532 49.746C34.076 52.19 31.97 54.114 29.214 55.518C26.458 56.922 23.182 57.624 19.386 57.624C16.89 57.624 14.498 57.338 12.21 56.766C9.974 56.194 7.894 55.466 5.97 54.582C4.046 53.646 2.33 52.684 0.822 51.696L4.176 45.768C5.424 46.652 6.854 47.51 8.466 48.342C10.078 49.122 11.768 49.772 13.536 50.292C15.304 50.76 17.02 50.994 18.684 50.994C20.452 50.994 22.194 50.682 23.91 50.058C25.678 49.382 27.134 48.368 28.278 47.016C29.422 45.664 29.994 43.87 29.994 41.634C29.994 39.71 29.474 38.124 28.434 36.876C27.446 35.576 26.12 34.484 24.456 33.6C22.792 32.664 21.024 31.832 19.152 31.104C17.384 30.428 15.59 29.7 13.77 28.92C11.95 28.088 10.26 27.1 8.7 25.956C7.14 24.76 5.892 23.304 4.956 21.588C4.02 19.872 3.552 17.792 3.552 15.348C3.552 12.384 4.254 9.81 5.658 7.626C7.114 5.39 9.09 3.648 11.586 2.4C14.082 1.1 16.942 0.397997 20.166 0.293995C23.806 0.293995 27.004 0.735996 29.76 1.62C32.568 2.504 35.038 3.596 37.17 4.896L34.284 10.668Z" fill="white"/>
<path d="M39.284 10.668C37.36 9.68 35.254 8.822 32.966 8.094C30.678 7.366 28.442 7.002 26.258 7.002C23.242 7.002 20.824 7.704 19.004 9.108C17.236 10.512 16.352 12.384 16.352 14.724C16.352 16.492 16.924 18 18.068 19.248C19.212 20.444 20.72 21.484 22.592 22.368C24.464 23.252 26.414 24.084 28.442 24.864C30.21 25.54 31.952 26.294 33.668 27.126C35.384 27.958 36.918 28.998 38.27 30.246C39.674 31.494 40.766 33.028 41.546 34.848C42.378 36.668 42.794 38.93 42.794 41.634C42.794 44.598 42.04 47.302 40.532 49.746C39.076 52.19 36.97 54.114 34.214 55.518C31.458 56.922 28.182 57.624 24.386 57.624C21.89 57.624 19.498 57.338 17.21 56.766C14.974 56.194 12.894 55.466 10.97 54.582C9.046 53.646 7.33 52.684 5.822 51.696L9.176 45.768C10.424 46.652 11.854 47.51 13.466 48.342C15.078 49.122 16.768 49.772 18.536 50.292C20.304 50.76 22.02 50.994 23.684 50.994C25.452 50.994 27.194 50.682 28.91 50.058C30.678 49.382 32.134 48.368 33.278 47.016C34.422 45.664 34.994 43.87 34.994 41.634C34.994 39.71 34.474 38.124 33.434 36.876C32.446 35.576 31.12 34.484 29.456 33.6C27.792 32.664 26.024 31.832 24.152 31.104C22.384 30.428 20.59 29.7 18.77 28.92C16.95 28.088 15.26 27.1 13.7 25.956C12.14 24.76 10.892 23.304 9.956 21.588C9.02 19.872 8.552 17.792 8.552 15.348C8.552 12.384 9.254 9.81 10.658 7.626C12.114 5.39 14.09 3.648 16.586 2.4C19.082 1.1 21.942 0.397997 25.166 0.293995C28.806 0.293995 32.004 0.735996 34.76 1.62C37.568 2.504 40.038 3.596 42.17 4.896L39.284 10.668Z" fill="#F97316"/>
</svg>
